<?xml version="1.0" encoding="UTF-8"?>
<svg version="1.1" xmlns="http://www.w3.org/2000/svg" width="500" height="500">
<path d="M0 0 C0.93134766 -0.00686325 1.86269531 -0.0137265 2.82226562 -0.02079773 C5.87458922 -0.03897016 8.92639413 -0.03524196 11.97875977 -0.02954102 C14.11670599 -0.03410729 16.25465074 -0.03941419 18.39259338 -0.04542542 C22.86351502 -0.0543377 27.33425784 -0.05195467 31.80517578 -0.04199219 C37.51567479 -0.03050327 43.22555535 -0.05072288 48.93597317 -0.07990932 C53.34825009 -0.09831333 57.76037993 -0.0979705 62.17268562 -0.0922718 C64.277282 -0.09211911 66.38188869 -0.09811991 68.48644829 -0.11056328 C71.43666538 -0.12555145 74.38575411 -0.11473887 77.3359375 -0.09765625 C78.19286697 -0.10732422 79.04979645 -0.11699219 79.93269348 -0.12695312 C94.26569128 0.0455899 103.39055777 8.61305599 113.38500977 17.83764648 C116.06075437 20.24912002 118.79830027 22.52583508 121.60766602 24.77905273 C126.4006343 28.64346876 130.90017519 32.74480037 135.38525391 36.95556641 C138.82372116 40.16374489 142.35668648 43.16831792 146.04516602 46.09155273 C155.37288402 53.66522465 162.16716913 61.15770536 163.59242296 73.52601182 C163.73384067 77.00753022 163.7469366 80.46697845 163.71368408 83.95121765 C163.71543202 85.28890029 163.71894099 86.62658157 163.72404075 87.96425563 C163.7329212 91.61088842 163.71707382 95.25704505 163.6969285 98.90361726 C163.67956692 102.84688168 163.68550633 106.79012178 163.6885376 110.7334137 C163.69062948 117.55573007 163.67813742 124.37789279 163.65558624 131.20017052 C163.62300291 141.06387012 163.61265276 150.92749583 163.60763428 160.79124341 C163.59889154 176.79658064 163.57230373 192.80183606 163.53442383 208.80712891 C163.49767727 224.34976799 163.46937846 239.89238481 163.45239258 255.43505859 C163.45134168 256.39398121 163.45029079 257.35290383 163.44920805 258.34088471 C163.4439877 263.15177853 163.43893291 267.96267252 163.43396044 272.7735666 C163.39253022 312.65045312 163.32181117 352.52724621 163.23266602 392.40405273 C157.62266602 392.40405273 152.01266602 392.40405273 146.23266602 392.40405273 C146.23266602 381.84405273 146.23266602 371.28405273 146.23266602 360.40405273 C116.53266602 360.40405273 86.83266602 360.40405273 56.23266602 360.40405273 C55.90266602 364.69405273 55.57266602 368.98405273 55.23266602 373.40405273 C54.85762054 376.8184086 54.46518136 380.22219155 54.03344727 383.62890625 C53.91786469 384.5607222 53.8022821 385.49253815 53.68319702 386.45259094 C53.30688436 389.47976724 52.92617689 392.50637073 52.54516602 395.53295898 C52.27975021 397.6571154 52.01453556 399.78129696 51.74951172 401.90550232 C51.19670428 406.33080448 50.64175731 410.75583135 50.08520508 415.18066406 C49.37190295 420.85281722 48.66359207 426.52558042 47.95680237 432.19854832 C47.41131266 436.57302171 46.86342783 440.94719247 46.31478882 445.3212719 C46.05255224 447.41398432 45.79101203 449.50678413 45.53018188 451.59967232 C45.166487 454.51467285 44.79962279 457.42925715 44.43188477 460.34375 C44.27132095 461.63804932 44.27132095 461.63804932 44.10751343 462.95849609 C44.00661407 463.75296646 43.90571472 464.54743683 43.80175781 465.36598206 C43.7154863 466.05334725 43.62921478 466.74071245 43.54032898 467.4489069 C43.22440588 469.45654447 42.72558147 471.4323909 42.23266602 473.40405273 C76.55266602 473.40405273 110.87266602 473.40405273 146.23266602 473.40405273 C146.23266602 451.95405273 146.23266602 430.50405273 146.23266602 408.40405273 C151.84266602 408.40405273 157.45266602 408.40405273 163.23266602 408.40405273 C163.34566362 418.35722913 163.43737987 428.30997898 163.49172688 438.26365185 C163.51781185 442.88564588 163.55318942 447.50717804 163.60986328 452.12890625 C163.66422291 456.58986761 163.69409483 461.05038496 163.70705223 465.51165199 C163.71628509 467.21294456 163.73431515 468.91421305 163.7613163 470.61531639 C163.79766106 473.00009889 163.80260939 475.38305115 163.80029297 477.76806641 C163.81826935 478.47009689 163.83624573 479.17212738 163.85476685 479.89543152 C163.81865529 483.33547435 163.2438661 485.38540881 161.46781921 488.34185791 C156.45990583 491.53406935 151.7250477 491.09282871 145.90258789 491.03515625 C144.65167862 491.04231155 143.40076935 491.04946686 142.11195374 491.05683899 C138.68792408 491.07083918 135.2654073 491.06243009 131.84150124 491.04274869 C128.25504296 491.02634263 124.66863334 491.03517779 121.08215332 491.04026794 C115.05976932 491.04478675 109.03769612 491.02893261 103.01538086 491.00097656 C96.0573144 490.9689253 89.09980843 490.96894088 82.14170218 490.98619133 C75.44234295 491.00206706 68.74318879 490.99531624 62.0438385 490.97825432 C59.19542467 490.97139001 56.34717552 490.97240978 53.49876404 490.97979927 C49.51987417 490.98889802 45.541558 490.96490387 41.56274414 490.9375 C40.38233047 490.94402588 39.20191681 490.95055176 37.98573303 490.95727539 C33.58822999 490.90570668 30.07408073 490.73420979 25.96203613 489.12071228 C21.45112386 482.03454098 24.47222343 470.761637 25.50195312 462.79223633 C25.63689682 461.70129669 25.77184052 460.61035706 25.91087341 459.48635864 C26.35340044 455.92412898 26.80645353 452.36333099 27.26000977 448.80249023 C27.57203711 446.31343224 27.88351632 443.82430547 28.19447327 441.33511353 C28.92775956 435.4793623 29.66811218 429.62453638 30.41148049 423.77005732 C31.08897169 418.42993045 31.75839823 413.0888183 32.42558855 407.74739587 C33.14920761 401.95478559 33.87711824 396.16272367 34.60724068 390.37092972 C34.91712769 387.91095774 35.22611356 385.45087207 35.53419304 382.99067307 C35.96373649 379.56727326 36.39812753 376.14452478 36.83398438 372.72192383 C36.96129944 371.7006842 37.0886145 370.67944458 37.2197876 369.6272583 C37.33896042 368.69946564 37.45813324 367.77167297 37.58091736 366.81576538 C37.68323638 366.00726828 37.7855554 365.19877117 37.890975 364.36577415 C38.23266602 362.40405273 38.23266602 362.40405273 39.23266602 360.40405273 C38.01579102 360.46592773 36.79891602 360.52780273 35.54516602 360.59155273 C31.63340108 360.59847621 29.39585269 359.82296019 26.23266602 357.40405273 C24.23266602 355.40405273 24.23266602 355.40405273 24.01475525 353.38838196 C24.02857742 352.56122177 24.0423996 351.73406158 24.05664062 350.88183594 C24.06582016 349.94358475 24.07499969 349.00533356 24.0844574 348.03865051 C24.10948082 346.51216133 24.10948082 346.51216133 24.13500977 344.95483398 C24.13907567 342.8057484 24.14095919 340.65665779 24.14086914 338.50756836 C24.14896334 335.11413863 24.17005347 331.72303016 24.22900391 328.33007812 C24.2803366 325.05791756 24.27470382 321.78977924 24.26000977 318.51733398 C24.30628761 317.00602654 24.30628761 317.00602654 24.35350037 315.46418762 C24.29560242 311.17759011 24.22532871 308.48933819 21.25686646 305.24389648 C18.98564887 303.4736174 16.67239782 301.9295003 14.23266602 300.40405273 C-2.74653845 285.49901245 -14.42409565 264.00941074 -16.76733398 241.40405273 C-16.79430719 239.32413294 -16.80122953 237.24389361 -16.79223633 235.16381836 C-16.78864105 234.0847522 -16.78504578 233.00568604 -16.78134155 231.8939209 C-16.77671906 231.0722644 -16.77209656 230.25060791 -16.76733398 229.40405273 C-17.48428436 229.41293518 -18.20123474 229.42181763 -18.93991089 229.43096924 C-25.73556147 229.51151048 -32.53113963 229.57221645 -39.32714653 229.61130142 C-42.82011345 229.63207201 -46.31268212 229.66019279 -49.80541992 229.70581055 C-53.83182337 229.75806219 -57.85781625 229.77708471 -61.88452148 229.79467773 C-63.12346161 229.81532288 -64.36240173 229.83596802 -65.6388855 229.85723877 C-74.23495576 229.85943881 -81.27336756 228.63536394 -88.35327148 223.54467773 C-95.32854982 216.1734229 -99.17451887 209.07976084 -99.05639648 198.72436523 C-98.37958603 193.2915894 -96.42798002 187.57686064 -93.09545898 183.21655273 C-92.65717773 182.61842773 -92.21889648 182.02030273 -91.76733398 181.40405273 C-92.27620045 178.99488223 -92.27620045 178.99488223 -93.76733398 176.40405273 C-97.85357052 168.5508169 -100.4723713 161.49829501 -97.97827148 152.58374023 C-95.41843279 145.25595771 -95.41843279 145.25595771 -93.09545898 142.21655273 C-92.65717773 141.61842773 -92.21889648 141.02030273 -91.76733398 140.40405273 C-92.39661189 137.88694111 -93.50296475 135.87496043 -94.76733398 133.62280273 C-97.55877133 128.45043354 -98.40001028 124.28123203 -98.76733398 118.40405273 C-93.15733398 118.40405273 -87.54733398 118.40405273 -81.76733398 118.40405273 C-80.85587565 120.38972982 -79.94441732 122.3754069 -79.03295898 124.36108398 C-77.44083701 126.93108334 -76.43549421 127.9088016 -73.76733398 129.40405273 C-70.65296214 129.88301952 -67.55466216 129.89282278 -64.40795898 129.91577148 C-63.50358093 129.93372269 -62.59920288 129.95167389 -61.66741943 129.97016907 C-58.78410478 130.02427131 -55.90095566 130.05816748 -53.01733398 130.09155273 C-51.0602797 130.12472589 -49.10324726 130.15921555 -47.14624023 130.19506836 C-42.35339092 130.27999778 -37.5605907 130.34680943 -32.76733398 130.40405273 C-32.76733398 136.01405273 -32.76733398 141.62405273 -32.76733398 147.40405273 C-36.63452148 147.46012695 -36.63452148 147.46012695 -40.57983398 147.51733398 C-43.09863384 147.56365004 -45.617291 147.61484683 -48.13598633 147.66650391 C-49.87580571 147.69959566 -51.61572837 147.72767581 -53.35571289 147.75048828 C-55.86836439 147.78432628 -58.38008265 147.83665299 -60.89233398 147.89233398 C-61.66037354 147.89872391 -62.42841309 147.90511383 -63.21972656 147.91169739 C-68.64952882 148.05690633 -72.82015953 149.11009828 -77.76733398 151.40405273 C-79.98400274 154.72905587 -80.53871312 156.44129101 -80.76733398 160.40405273 C-79.61307586 164.18745436 -78.76282351 166.63081314 -75.60444641 169.08406067 C-72.05876306 170.73372173 -69.40670791 170.80267645 -65.49853516 170.83642578 C-64.42942398 170.85171326 -64.42942398 170.85171326 -63.3387146 170.86730957 C-60.99582997 170.8973706 -58.65335465 170.90669461 -56.31030273 170.91577148 C-54.68075713 170.93262335 -53.05122448 170.95077427 -51.42170715 170.97016907 C-47.14250742 171.01762037 -42.86336024 171.04746109 -38.58398438 171.0736084 C-34.21335473 171.10343858 -29.84290605 171.14996045 -25.47241211 171.19506836 C-16.90412671 171.28104619 -8.33586001 171.34687236 0.23266602 171.40405273 C0.23266602 177.01405273 0.23266602 182.62405273 0.23266602 188.40405273 C-1.84594727 188.41863525 -3.92456055 188.43321777 -6.06616211 188.44824219 C-12.95540106 188.49871505 -19.84441699 188.56533211 -26.73343658 188.63976765 C-30.90780179 188.68438059 -35.08207143 188.72365632 -39.2565918 188.75048828 C-43.28978618 188.77661235 -47.32261105 188.81707802 -51.35557556 188.867239 C-52.88959638 188.88384646 -54.42368102 188.8953987 -55.95777893 188.90166664 C-67.24031912 188.81838664 -67.24031912 188.81838664 -77.76733398 192.40405273 C-80.36818345 196.3818225 -80.92232655 198.38799034 -80.20483398 203.09155273 C-78.75961816 206.42183268 -77.59753264 208.17419925 -74.76733398 210.40405273 C-71.41664022 211.52095066 -68.8713142 211.54218684 -65.33984375 211.56176758 C-64.69234161 211.5668483 -64.04483948 211.57192902 -63.37771606 211.5771637 C-61.97325042 211.58785356 -60.56876788 211.59647916 -59.16427803 211.60328293 C-56.94072228 211.61508588 -54.71735954 211.63454126 -52.49388123 211.65640259 C-46.17258115 211.71797818 -39.85130231 211.77208606 -33.52978516 211.80541992 C-29.661745 211.82636487 -25.79405941 211.86166336 -21.92622185 211.90617752 C-20.45308542 211.92033617 -18.9798863 211.92905967 -17.50668526 211.9322319 C-15.44548548 211.93714091 -13.38522718 211.96029527 -11.32421875 211.98754883 C-10.15190201 211.99563568 -8.97958527 212.00372253 -7.77174377 212.01205444 C-4.47281213 212.44248027 -3.09530352 213.0637245 -0.76733398 215.40405273 C0.1321039 218.10236638 0.37694653 219.79766918 0.44360352 222.57983398 C1.0417881 241.39680104 4.50388215 257.01001695 14.23266602 273.40405273 C14.16047852 272.4462793 14.08829102 271.48850586 14.01391602 270.50170898 C11.86732205 240.56357394 15.58694967 214.13520134 27.23266602 186.40405273 C27.90143712 184.73822938 28.56847034 183.07170568 29.23266602 181.40405273 C28.55472488 180.73721466 27.87678375 180.07037659 27.17829895 179.3833313 C20.76507797 173.07183434 14.36537955 166.74689822 7.97839832 160.4088459 C4.69500038 157.1514492 1.40715594 153.89882944 -1.89160156 150.65698242 C-5.07986055 147.52338118 -8.25545088 144.37742747 -11.42293739 141.22283554 C-12.62849859 140.02645383 -13.83842426 138.83445226 -15.05290794 137.64712906 C-30.15144132 122.87271988 -30.15144132 122.87271988 -31.31428814 111.74098396 C-31.40032163 110.92921452 -31.48635513 110.11744507 -31.5749957 109.28107655 C-31.67020315 108.35194976 -31.67020315 108.35194976 -31.76733398 107.40405273 C-32.68232851 107.4051919 -32.68232851 107.4051919 -33.61580777 107.40635407 C-69.7484488 107.45108516 -105.88108574 107.48541317 -142.01374878 107.50618339 C-146.34974207 107.50868488 -150.68573531 107.51127352 -155.02172852 107.51391602 C-156.31658616 107.51470295 -156.31658616 107.51470295 -157.63760254 107.51550578 C-171.62523897 107.52421451 -185.61285901 107.53998706 -199.60048571 107.55835833 C-213.94714144 107.57704435 -228.29378856 107.58816671 -242.64045596 107.59222972 C-251.49707435 107.59497748 -260.3536464 107.60366409 -269.21025053 107.61988567 C-275.27897158 107.63043654 -281.34766858 107.63365767 -287.41639814 107.63105549 C-290.92063658 107.62977123 -294.4247939 107.63177554 -297.92901802 107.64246368 C-301.72429512 107.65395533 -305.51946566 107.65004147 -309.3147583 107.64456177 C-310.98400734 107.65330029 -310.98400734 107.65330029 -312.68697858 107.66221535 C-313.70164409 107.65823326 -314.71630961 107.65425116 -315.76172256 107.65014839 C-316.63811709 107.65090783 -317.51451161 107.65166727 -318.41746354 107.65244973 C-321.01593561 107.37777388 -322.57832847 106.8199267 -324.76733398 105.40405273 C-327.01465359 102.03307332 -327.03143347 100.84552723 -327.07373047 96.89453125 C-327.08971786 95.76648575 -327.10570526 94.63844025 -327.12217712 93.47621155 C-327.12753983 92.2574382 -327.13290253 91.03866486 -327.13842773 89.78295898 C-327.14745621 88.53151596 -327.15648468 87.28007294 -327.16578674 85.9907074 C-327.1803064 83.34180307 -327.18997542 80.69333058 -327.19287109 78.04443359 C-327.19825825 74.65337161 -327.23595187 71.26349907 -327.28161526 67.87277317 C-327.31854073 64.63457219 -327.31989936 61.39634226 -327.32592773 58.15795898 C-327.34546005 56.94120987 -327.36499237 55.72446075 -327.38511658 54.47084045 C-327.37903885 53.33964279 -327.37296112 52.20844513 -327.36669922 51.04296875 C-327.37176987 50.04830093 -327.37684052 49.05363312 -327.38206482 48.02882385 C-326.76733398 45.40405273 -326.76733398 45.40405273 -324.95696068 43.27006817 C-320.12282534 40.44197196 -315.62380211 40.86564601 -310.11857605 40.92303467 C-308.92599019 40.91961697 -307.73340433 40.91619927 -306.5046795 40.912678 C-303.19776443 40.90722859 -299.8917964 40.91972737 -296.58499587 40.93979025 C-293.01790686 40.95706471 -289.45084709 40.95121856 -285.88372803 40.94818115 C-279.70463825 40.94608378 -273.52571743 40.95863334 -267.34667015 40.98113251 C-258.41283534 41.01364124 -249.47908222 41.02405836 -240.54519466 41.02908447 C-226.05059128 41.0378389 -211.55607793 41.06445848 -197.06152344 41.10229492 C-182.9814499 41.13901119 -168.90140081 41.16732483 -154.82128906 41.18432617 C-153.51943592 41.18590251 -153.51943592 41.18590251 -152.19128271 41.1875107 C-147.8372713 41.19273085 -143.48325972 41.19778568 -139.12924802 41.20275831 C-103.00854643 41.24422495 -66.88794722 41.31467739 -30.76733398 41.40405273 C-31.08968018 40.64954834 -31.41202637 39.89504395 -31.74414062 39.11767578 C-34.37711497 32.13473379 -33.880109 22.74026691 -30.82983398 15.96655273 C-26.36849348 8.42625893 -20.53603658 3.7024819 -12.27912712 1.03927422 C-8.18114428 0.00291231 -4.20806159 -0.02205382 0 0 Z M-15.14233398 23.15405273 C-16.11072297 26.64025308 -16.42841969 29.86008811 -15.76733398 33.40405273 C-12.70792076 38.26312079 -10.23084586 39.97626386 -4.76733398 41.40405273 C-1.60843865 41.64147859 -1.60843865 41.64147859 1.71850586 41.51660156 C2.98777924 41.49451126 4.25705261 41.47242096 5.56478882 41.44966125 C6.57268023 41.42674232 6.57268023 41.42674232 7.60093307 41.40336037 C11.21349927 41.33037887 14.82652091 41.32111387 18.43969727 41.30053711 C23.01342663 41.27109868 27.58459062 41.22382247 32.15698242 41.10595703 C61.59494898 40.3825949 61.59494898 40.3825949 70.88500977 48.62670898 C72.56144361 50.2828986 74.14536834 51.97536132 75.69464111 53.75065613 C78.30136512 56.55291805 81.35987461 58.74977247 84.42016602 61.02905273 C89.20370929 64.75257119 93.90417039 68.56680492 98.54516602 72.46655273 C99.10292725 72.93206543 99.66068848 73.39757812 100.23535156 73.87719727 C104.11194589 77.16261249 104.11194589 77.16261249 105.23266602 79.40405273 C105.34360198 81.1389785 105.39185243 82.87807744 105.40966797 84.61645508 C105.42892082 86.24857437 105.42892082 86.24857437 105.44856262 87.91366577 C105.45594955 89.09385284 105.46333649 90.27403992 105.47094727 91.48999023 C105.47901901 92.69845612 105.48709076 93.906922 105.4954071 95.15200806 C105.50925597 97.71257081 105.51997452 100.27315209 105.52783203 102.83374023 C105.5450646 106.75596902 105.58894763 110.67735948 105.63305664 114.59936523 C105.64318143 117.08373402 105.6516982 119.56810999 105.65844727 122.05249023 C105.67595535 123.22862885 105.69346344 124.40476746 105.71150208 125.61654663 C105.70857651 126.71093048 105.70565094 127.80531433 105.70263672 128.93286133 C105.70850296 129.89501556 105.7143692 130.8571698 105.72041321 131.84848022 C105.08638339 135.17050688 103.86574192 136.3436 101.23266602 138.40405273 C97.98266602 139.09155273 97.98266602 139.09155273 94.23266602 138.40405273 C86.54498795 133.00770002 80.17071707 125.3056001 73.74243164 118.52319336 C67.81437986 112.44910797 62.56274661 108.03783164 53.94750977 107.01342773 C53.03098633 107.05983398 52.11446289 107.10624023 51.17016602 107.15405273 C50.23043945 107.19014648 49.29071289 107.22624023 48.32250977 107.26342773 C47.63286133 107.30983398 46.94321289 107.35624023 46.23266602 107.40405273 C51.7298586 114.09935139 57.84219753 120.14101764 63.97485352 126.24389648 C65.10993007 127.37710472 66.24478365 128.51053635 67.37942505 129.6441803 C70.34617346 132.60713608 73.31591404 135.56707467 76.28631592 138.52636719 C79.32495462 141.5547213 82.36071511 144.58595772 85.39672852 147.61694336 C91.33924861 153.54878363 97.28493702 159.47743535 103.23266602 165.40405273 C102.36459001 166.47221718 101.48771819 167.53323358 100.60766602 168.59155273 C100.12040039 169.18323242 99.63313477 169.77491211 99.13110352 170.38452148 C96.68233875 172.98948318 94.00957226 175.15219179 91.23266602 177.40405273 C90.8095152 176.97813654 90.38636438 176.55222034 89.95039082 176.1133976 C79.65095119 165.74768837 69.34319781 155.39029916 59.02615833 145.04210854 C54.0371014 140.03758651 49.05088875 135.03029115 44.07128906 130.01635742 C39.26707776 125.17903724 34.4550583 120.34959903 29.6381588 115.52491379 C27.80030764 113.68151304 25.96510211 111.83547079 24.1325779 109.98677444 C21.56845146 107.40092009 18.99513944 104.82455742 16.41943359 102.25024414 C15.66129868 101.48132339 14.90316376 100.71240265 14.12205505 99.92018127 C13.41680695 99.21905716 12.71155884 98.51793304 11.98493958 97.79556274 C11.377478 97.18533579 10.77001642 96.57510883 10.14414692 95.94639015 C5.85466906 92.48529243 1.6368518 91.84499903 -3.76733398 92.40405273 C-7.94201712 94.07049003 -11.76355352 96.28517067 -13.76733398 100.40405273 C-14.80447745 104.64175613 -15.26816109 107.95537928 -13.82202148 112.13842773 C-10.85799872 116.84930802 -7.0117223 120.43236688 -3.01733398 124.27905273 C-1.43674893 125.8155887 0.14140506 127.35462964 1.71704102 128.89624023 C2.41539062 129.57025879 3.11374023 130.24427734 3.83325195 130.9387207 C5.81208928 132.97192169 7.66119711 135.03847348 9.50952148 137.1875 C13.23565179 141.48037346 17.23231897 145.42954704 21.31860352 149.37670898 C22.84147809 150.86749075 24.36359178 152.35905011 25.88500977 153.85131836 C28.25469851 156.17146399 30.62847412 158.48662447 33.01538086 160.7890625 C35.33870561 163.03367481 37.64240848 165.29694342 39.94360352 167.56420898 C40.66019135 168.24669205 41.37677917 168.92917511 42.11508179 169.63233948 C45.322776 172.82209071 47.04300865 174.72309291 48.27832031 179.15844727 C48.23709937 182.08888176 48.15204408 183.64755327 46.79125977 186.17358398 C46.29082153 187.15113647 46.29082153 187.15113647 45.78027344 188.1484375 C45.41393799 188.83091553 45.04760254 189.51339355 44.67016602 190.21655273 C29.17367121 221.1312944 26.11606269 256.21101439 36.23266602 289.40405273 C38.21266602 294.35405273 38.21266602 294.35405273 40.23266602 299.40405273 C40.56266602 313.92405273 40.89266602 328.44405273 41.23266602 343.40405273 C75.88266602 343.40405273 110.53266602 343.40405273 146.23266602 343.40405273 C146.23266602 338.12405273 146.23266602 332.84405273 146.23266602 327.40405273 C116.53266602 327.40405273 86.83266602 327.40405273 56.23266602 327.40405273 C56.23266602 321.79405273 56.23266602 316.18405273 56.23266602 310.40405273 C85.93266602 310.40405273 115.63266602 310.40405273 146.23266602 310.40405273 C146.2988007 280.31378812 146.35419384 250.22356367 146.385862 220.13324665 C146.38961413 216.58093709 146.3934971 213.02862769 146.39746094 209.47631836 C146.39824787 208.76911652 146.3990348 208.06191468 146.39984558 207.33328249 C146.41290006 195.88186027 146.43655412 184.43048323 146.4641244 172.97908781 C146.49217745 161.22919272 146.50884206 149.47932129 146.5149315 137.72939408 C146.51884656 131.12950656 146.52806461 124.52972151 146.54985619 117.92986679 C146.57019486 111.71981994 146.57650506 105.50991792 146.57198906 99.29984093 C146.57281543 97.01897202 146.57879653 94.73809836 146.59028244 92.45725822 C146.60518528 89.34566559 146.60162739 86.23462141 146.59342957 83.12301636 C146.60216809 82.21833866 146.61090661 81.31366096 146.61990994 80.38156879 C146.57679841 74.33678291 145.5087178 70.17933286 141.57641602 65.38452148 C137.01945127 60.95306637 132.24492166 56.93050151 127.28735352 52.95483398 C123.81523285 50.05548002 120.52345798 47.00545627 117.23266602 43.90405273 C112.26206613 39.224293 107.17380066 34.80140354 101.83422852 30.54077148 C98.25169993 27.59836437 94.88503642 24.44066481 91.52172852 21.25170898 C86.42291521 17.13611394 81.59535254 17.10669068 75.31494141 17.11352539 C74.42652054 17.10680817 73.53809967 17.10009094 72.62275696 17.09317017 C69.6918882 17.07420382 66.76124854 17.07026687 63.83032227 17.06811523 C61.78917853 17.06168715 59.74803572 17.05495878 57.70689392 17.04794312 C53.43071354 17.03597433 49.15461392 17.03226197 44.87841797 17.03344727 C39.40283995 17.03365061 33.92778004 17.00633037 28.45232487 16.97190285 C24.2375196 16.94965275 20.02283948 16.94560912 15.80798149 16.94666672 C13.78938445 16.94430861 11.77078407 16.93547332 9.75224495 16.92000198 C6.92772337 16.90037729 4.10432534 16.9061659 1.27978516 16.91821289 C0.44894409 16.90697388 -0.38189697 16.89573486 -1.23791504 16.88415527 C-7.1228776 16.94784675 -11.33025761 18.30231917 -15.14233398 23.15405273 Z M-309.76733398 58.40405273 C-309.76733398 68.96405273 -309.76733398 79.52405273 -309.76733398 90.40405273 C-304.81733398 90.40405273 -299.86733398 90.40405273 -294.76733398 90.40405273 C-294.76733398 79.84405273 -294.76733398 69.28405273 -294.76733398 58.40405273 C-299.71733398 58.40405273 -304.66733398 58.40405273 -309.76733398 58.40405273 Z M-276.76733398 58.40405273 C-276.76733398 68.96405273 -276.76733398 79.52405273 -276.76733398 90.40405273 C-266.53733398 90.40405273 -256.30733398 90.40405273 -245.76733398 90.40405273 C-245.76733398 79.84405273 -245.76733398 69.28405273 -245.76733398 58.40405273 C-255.99733398 58.40405273 -266.22733398 58.40405273 -276.76733398 58.40405273 Z M-227.76733398 58.40405273 C-227.76733398 68.96405273 -227.76733398 79.52405273 -227.76733398 90.40405273 C-222.81733398 90.40405273 -217.86733398 90.40405273 -212.76733398 90.40405273 C-212.76733398 79.84405273 -212.76733398 69.28405273 -212.76733398 58.40405273 C-217.71733398 58.40405273 -222.66733398 58.40405273 -227.76733398 58.40405273 Z M-195.76733398 58.40405273 C-195.76733398 68.96405273 -195.76733398 79.52405273 -195.76733398 90.40405273 C-185.20733398 90.40405273 -174.64733398 90.40405273 -163.76733398 90.40405273 C-163.76733398 79.84405273 -163.76733398 69.28405273 -163.76733398 58.40405273 C-174.32733398 58.40405273 -184.88733398 58.40405273 -195.76733398 58.40405273 Z M-146.76733398 58.40405273 C-146.76733398 68.96405273 -146.76733398 79.52405273 -146.76733398 90.40405273 C-141.48733398 90.40405273 -136.20733398 90.40405273 -130.76733398 90.40405273 C-130.76733398 79.84405273 -130.76733398 69.28405273 -130.76733398 58.40405273 C-136.04733398 58.40405273 -141.32733398 58.40405273 -146.76733398 58.40405273 Z M-113.76733398 58.40405273 C-113.76733398 68.96405273 -113.76733398 79.52405273 -113.76733398 90.40405273 C-103.20733398 90.40405273 -92.64733398 90.40405273 -81.76733398 90.40405273 C-81.76733398 79.84405273 -81.76733398 69.28405273 -81.76733398 58.40405273 C-92.32733398 58.40405273 -102.88733398 58.40405273 -113.76733398 58.40405273 Z M-64.76733398 58.40405273 C-64.76733398 68.96405273 -64.76733398 79.52405273 -64.76733398 90.40405273 C-59.44444515 90.56504265 -54.13002761 90.70424429 -48.80664062 90.78857422 C-46.99742999 90.82372497 -45.18841749 90.87145738 -43.37988281 90.93212891 C-40.77546345 91.01729678 -38.17367538 91.05679057 -35.56811523 91.08764648 C-34.36001945 91.14183998 -34.36001945 91.14183998 -33.1275177 91.1971283 C-28.72687024 91.2330831 -28.72687024 91.2330831 -25.19981384 88.86804199 C-23.85867065 87.0214653 -23.85867065 87.0214653 -22.79925537 85.10276794 C-21.2674943 82.58123301 -19.24367485 81.44954794 -16.70483398 80.02905273 C-15.86823242 79.54694336 -15.03163086 79.06483398 -14.16967773 78.56811523 C-6.60152995 74.90094769 3.71589004 75.01309104 11.67016602 77.46264648 C16.84712066 79.89924886 20.25202882 82.25100156 23.73266602 86.77905273 C25.83854996 89.16632635 27.35233969 90.26847347 30.52172852 90.7565918 C36.48778937 91.10637191 42.22831679 90.72007111 48.23266602 90.40405273 C48.23266602 79.84405273 48.23266602 69.28405273 48.23266602 58.40405273 C10.94266602 58.40405273 -26.34733398 58.40405273 -64.76733398 58.40405273 Z M65.23266602 67.40405273 C65.23266602 75.65405273 65.23266602 83.90405273 65.23266602 92.40405273 C66.88266602 93.22905273 68.53266602 94.05405273 70.23266602 94.90405273 C75.11774686 97.54752193 78.68871888 100.44858754 82.38110352 104.57202148 C84.47347724 106.64232376 86.66701622 107.98016118 89.23266602 109.40405273 C91.01551745 96.56253447 91.01551745 96.56253447 88.11791992 84.36401367 C85.24760206 81.03738887 81.72396021 78.73601054 77.9777832 76.49194336 C75.28009601 74.81022901 72.91242495 72.7589588 70.48266602 70.71655273 C68.12678682 68.47028724 68.12678682 68.47028724 65.23266602 67.40405273 Z " fill="#0DC5D4" transform="translate(331.767333984375,4.595947265625)"/>
<path d="M0 0 C1.25847891 -0.00233999 1.25847891 -0.00233999 2.54238164 -0.00472724 C5.36375184 -0.00872733 8.18506858 -0.00555143 11.00643921 -0.00241089 C13.02493827 -0.00376535 15.04343708 -0.00554553 17.06193542 -0.00772095 C22.55132542 -0.01228939 28.04069667 -0.01050828 33.53008699 -0.00734186 C39.26450432 -0.00481593 44.99892001 -0.00715639 50.7333374 -0.00872803 C60.36229746 -0.01054874 69.99124985 -0.00814567 79.62020874 -0.00338745 C90.76912443 0.00205807 101.91802184 0.00029001 113.06693709 -0.00521386 C122.62447282 -0.00974409 132.18200304 -0.01039607 141.7395395 -0.00777519 C147.45442084 -0.00621232 153.16929356 -0.00601899 158.88417435 -0.00931168 C164.25374144 -0.01218919 169.62328483 -0.01021691 174.99284935 -0.00441742 C176.96942671 -0.00308931 178.94600604 -0.00348479 180.92258263 -0.00568008 C183.60865345 -0.00838952 186.29464706 -0.00501305 188.98071289 0 C189.77339809 -0.00223072 190.56608329 -0.00446144 191.38278925 -0.00675976 C196.74922276 0.0128336 196.74922276 0.0128336 197.8633728 1.12698364 C197.96318494 3.80429744 198.00217156 6.45002539 197.9883728 9.12698364 C197.99223999 9.87721802 197.99610718 10.62745239 198.00009155 11.40042114 C197.98998334 17.00037311 197.98998334 17.00037311 196.8633728 18.12698364 C194.35962577 18.23710183 191.88286741 18.28194388 189.37812805 18.28520203 C188.18853268 18.29260899 188.18853268 18.29260899 186.97490507 18.30016559 C184.2970235 18.31561777 181.61916603 18.32392197 178.94125366 18.33230591 C177.02979823 18.34187838 175.11834494 18.35188807 173.20689392 18.36230469 C168.00052128 18.38942825 162.7941395 18.41039733 157.58773494 18.43030667 C152.15311297 18.45212043 146.71851939 18.4795316 141.28392029 18.50636292 C130.9850058 18.55635235 120.68607562 18.6012679 110.38713032 18.64438528 C98.66542507 18.69370436 86.9437483 18.74864219 75.22207057 18.80406487 C51.1025312 18.91798083 26.98296453 19.02479882 2.8633728 19.12698364 C2.87122803 20.74709351 2.87122803 20.74709351 2.87924194 22.39993286 C2.89731389 26.39927342 2.90881287 30.39861036 2.91830444 34.39797974 C2.92333963 36.13040778 2.93016813 37.86283156 2.93881226 39.59524536 C2.95091346 42.08239798 2.95660918 44.56949451 2.96102905 47.05667114 C2.96619034 47.83380463 2.97135162 48.61093811 2.97666931 49.41162109 C2.97724451 54.89924023 2.97724451 54.89924023 1.8633728 57.12698364 C6.8133728 57.12698364 11.7633728 57.12698364 16.8633728 57.12698364 C16.85177124 55.47827271 16.84016968 53.82956177 16.82821655 52.13088989 C16.81884042 49.9837556 16.80974003 47.8366201 16.8008728 45.68948364 C16.7924939 44.60087036 16.78411499 43.51225708 16.77548218 42.39065552 C16.77064819 40.83894653 16.77064819 40.83894653 16.76571655 39.25588989 C16.75786133 37.81838379 16.75786133 37.81838379 16.74984741 36.35183716 C16.8633728 34.12698364 16.8633728 34.12698364 17.8633728 33.12698364 C20.5406866 33.02717151 23.18641455 32.98818489 25.8633728 33.00198364 C26.61360718 32.99811646 27.36384155 32.99424927 28.1368103 32.99026489 C33.73676227 33.00037311 33.73676227 33.00037311 34.8633728 34.12698364 C34.95051112 35.83470722 34.97037288 37.54597013 34.96102905 39.25588989 C34.9578064 40.29036255 34.95458374 41.32483521 34.95126343 42.39065552 C34.93869507 44.02357544 34.93869507 44.02357544 34.9258728 45.68948364 C34.92136108 46.78196411 34.91684937 47.87444458 34.91220093 49.00003052 C34.9003712 51.70903796 34.88243511 54.41801744 34.8633728 57.12698364 C39.8133728 57.12698364 44.7633728 57.12698364 49.8633728 57.12698364 C49.85177124 55.47827271 49.84016968 53.82956177 49.82821655 52.13088989 C49.81884042 49.9837556 49.80974003 47.8366201 49.8008728 45.68948364 C49.7924939 44.60087036 49.78411499 43.51225708 49.77548218 42.39065552 C49.77225952 41.35618286 49.76903687 40.32171021 49.76571655 39.25588989 C49.76047974 38.29755249 49.75524292 37.33921509 49.74984741 36.35183716 C49.8633728 34.12698364 49.8633728 34.12698364 50.8633728 33.12698364 C53.35396194 33.02700722 55.81064676 32.98818738 58.3008728 33.00198364 C58.99503296 32.99811646 59.68919312 32.99424927 60.40438843 32.99026489 C65.61009292 33.0003437 65.61009292 33.0003437 67.8633728 34.12698364 C67.8633728 41.71698364 67.8633728 49.30698364 67.8633728 57.12698364 C72.4833728 57.12698364 77.1033728 57.12698364 81.8633728 57.12698364 C81.8633728 49.53698364 81.8633728 41.94698364 81.8633728 34.12698364 C84.91319538 32.60207235 88.0845982 32.9833693 91.4258728 33.00198364 C92.12390015 32.99811646 92.82192749 32.99424927 93.54110718 32.99026489 C98.73673286 33.0003437 98.73673286 33.0003437 99.8633728 34.12698364 C99.95051112 35.83470722 99.97037288 37.54597013 99.96102905 39.25588989 C99.95619507 40.80759888 99.95619507 40.80759888 99.95126343 42.39065552 C99.93869507 44.02357544 99.93869507 44.02357544 99.9258728 45.68948364 C99.92136108 46.78196411 99.91684937 47.87444458 99.91220093 49.00003052 C99.9003712 51.70903796 99.88243511 54.41801744 99.8633728 57.12698364 C104.8133728 57.12698364 109.7633728 57.12698364 114.8633728 57.12698364 C114.85177124 55.47827271 114.84016968 53.82956177 114.82821655 52.13088989 C114.81884042 49.9837556 114.80974003 47.8366201 114.8008728 45.68948364 C114.7924939 44.60087036 114.78411499 43.51225708 114.77548218 42.39065552 C114.77225952 41.35618286 114.76903687 40.32171021 114.76571655 39.25588989 C114.76047974 38.29755249 114.75524292 37.33921509 114.74984741 36.35183716 C114.8633728 34.12698364 114.8633728 34.12698364 115.8633728 33.12698364 C118.5406866 33.02717151 121.18641455 32.98818489 123.8633728 33.00198364 C124.61360718 32.99811646 125.36384155 32.99424927 126.1368103 32.99026489 C131.73676227 33.00037311 131.73676227 33.00037311 132.8633728 34.12698364 C132.95051112 35.83470722 132.97037288 37.54597013 132.96102905 39.25588989 C132.9578064 40.29036255 132.95458374 41.32483521 132.95126343 42.39065552 C132.94288452 43.4792688 132.93450562 44.56788208 132.9258728 45.68948364 C132.92136108 46.78196411 132.91684937 47.87444458 132.91220093 49.00003052 C132.9003712 51.70903796 132.88243511 54.41801744 132.8633728 57.12698364 C137.8133728 57.12698364 142.7633728 57.12698364 147.8633728 57.12698364 C147.5333728 56.46698364 147.2033728 55.80698364 146.8633728 55.12698364 C146.62622752 51.98670185 146.6781894 48.83774563 146.6758728 45.68948364 C146.66362671 44.81743286 146.65138062 43.94538208 146.63876343 43.04690552 C146.63682983 42.20837036 146.63489624 41.36983521 146.63290405 40.50588989 C146.62879517 39.73833374 146.62468628 38.97077759 146.62045288 38.17996216 C146.8633728 36.12698364 146.8633728 36.12698364 148.8633728 33.12698364 C151.47392874 32.87807706 153.82432202 32.79968594 156.4258728 32.87698364 C157.47291382 32.88471802 157.47291382 32.88471802 158.54110718 32.89260864 C163.709201 32.97281184 163.709201 32.97281184 164.8633728 34.12698364 C164.95051112 35.83470722 164.97037288 37.54597013 164.96102905 39.25588989 C164.9578064 40.29036255 164.95458374 41.32483521 164.95126343 42.39065552 C164.94288452 43.4792688 164.93450562 44.56788208 164.9258728 45.68948364 C164.92136108 46.78196411 164.91684937 47.87444458 164.91220093 49.00003052 C164.9003712 51.70903796 164.88243511 54.41801744 164.8633728 57.12698364 C169.8133728 57.12698364 174.7633728 57.12698364 179.8633728 57.12698364 C179.85177124 55.47827271 179.84016968 53.82956177 179.82821655 52.13088989 C179.81884042 49.9837556 179.80974003 47.8366201 179.8008728 45.68948364 C179.7924939 44.60087036 179.78411499 43.51225708 179.77548218 42.39065552 C179.77225952 41.35618286 179.76903687 40.32171021 179.76571655 39.25588989 C179.76047974 38.29755249 179.75524292 37.33921509 179.74984741 36.35183716 C179.8633728 34.12698364 179.8633728 34.12698364 180.8633728 33.12698364 C183.5406866 33.02717151 186.18641455 32.98818489 188.8633728 33.00198364 C189.61360718 32.99811646 190.36384155 32.99424927 191.1368103 32.99026489 C196.73676227 33.00037311 196.73676227 33.00037311 197.8633728 34.12698364 C197.95051112 35.83470722 197.97037288 37.54597013 197.96102905 39.25588989 C197.9578064 40.29036255 197.95458374 41.32483521 197.95126343 42.39065552 C197.94288452 43.4792688 197.93450562 44.56788208 197.9258728 45.68948364 C197.92136108 46.78196411 197.91684937 47.87444458 197.91220093 49.00003052 C197.9003712 51.70903796 197.88243511 54.41801744 197.8633728 57.12698364 C202.8133728 57.12698364 207.7633728 57.12698364 212.8633728 57.12698364 C212.8633728 54.81698364 212.8633728 52.50698364 212.8633728 50.12698364 C214.85122179 48.13913465 218.59037687 48.89700577 221.3008728 48.87698364 C221.99503296 48.85635864 222.68919312 48.83573364 223.40438843 48.81448364 C225.42196655 48.79885864 225.42196655 48.79885864 228.8633728 49.12698364 C231.61014954 53.24714875 231.01205223 56.25608816 230.7383728 61.06448364 C230.71516968 61.87594849 230.69196655 62.68741333 230.6680603 63.52346802 C230.46491622 67.39272806 230.34681451 69.49968377 227.9336853 72.63088989 C224.62878803 75.01914585 222.77952932 75.24129334 218.7383728 75.18948364 C217.37325562 75.17594849 217.37325562 75.17594849 215.9805603 75.16213989 C214.93255249 75.14473755 214.93255249 75.14473755 213.8633728 75.12698364 C213.86705997 76.18974203 213.87074715 77.25250042 213.87454605 78.34746361 C213.9633917 104.22106188 214.02909836 130.09464034 214.07062149 155.96835899 C214.09123611 168.48076172 214.11933585 180.99306361 214.16513062 193.50540161 C214.20503185 204.41268311 214.23081361 215.31989156 214.23972678 226.22724402 C214.24493591 232.00123172 214.25715669 237.77501047 214.28629303 243.54893112 C214.31351386 248.98750051 214.32180424 254.42577555 214.31580353 259.86440659 C214.31690077 261.85656841 214.3248147 263.84874044 214.3401947 265.8408432 C214.49652623 287.14087154 214.49652623 287.14087154 208.0039978 295.52932739 C203.45232691 299.22520892 199.49515574 301.43744876 193.8633728 303.12698364 C193.26375795 303.31229015 192.6641431 303.49759666 192.04635811 303.68851852 C189.06918061 304.2865017 186.2224359 304.25989816 183.18560791 304.26742554 C182.18038564 304.27188222 182.18038564 304.27188222 181.15485585 304.27642894 C178.91038397 304.28509696 176.66596555 304.28662259 174.42147827 304.28811646 C172.8115172 304.29274609 171.20155722 304.29777094 169.59159851 304.30316162 C165.21733691 304.31627632 160.84309065 304.32272912 156.46881247 304.32717228 C153.73361219 304.33010537 150.99841609 304.3342107 148.26321793 304.33867645 C139.69887813 304.35235084 131.1345479 304.36201698 122.57019794 304.36587834 C112.69664921 304.37035479 102.82323922 304.38788373 92.94973266 304.41687894 C85.31049025 304.43853082 77.67128677 304.44858455 70.03201401 304.44991946 C65.47320159 304.45096526 60.9145196 304.45682469 56.35573959 304.47473907 C52.06292882 304.49127978 47.77034565 304.4933463 43.47751427 304.48460007 C41.90784913 304.48383281 40.33817145 304.48813105 38.76853752 304.49805832 C27.99607818 304.56215563 17.4907898 304.38185703 8.8633728 297.12698364 C2.78333608 290.3015578 0.54983965 284.2724487 0.62286377 275.07843018 C0.62115492 274.28517802 0.61944607 273.49192587 0.61768544 272.67463577 C0.61440048 270.02600905 0.62537778 267.37763767 0.63632202 264.72903442 C0.63688635 262.82669582 0.63656915 260.92435678 0.63543701 259.02201843 C0.63486335 253.86340912 0.64661998 248.70489287 0.66058493 243.54630518 C0.67308991 238.153108 0.6742626 232.75990866 0.67663574 227.36669922 C0.68285118 217.15645509 0.6992629 206.94625381 0.71933472 196.73602855 C0.74169169 185.11096544 0.75268665 173.48590027 0.76272559 161.86082101 C0.78362905 137.94951814 0.81880631 114.03825329 0.8633728 90.12698364 C4.10209413 89.04740987 6.52365485 88.9937158 9.9258728 89.00198364 C10.98934937 88.99940552 12.05282593 88.99682739 13.14852905 88.99417114 C15.8633728 89.12698364 15.8633728 89.12698364 17.8633728 90.12698364 C18.1933728 105.96698364 18.5233728 121.80698364 18.8633728 138.12698364 C23.8133728 138.45698364 28.7633728 138.78698364 33.8633728 139.12698364 C33.8633728 133.84698364 33.8633728 128.56698364 33.8633728 123.12698364 C39.4733728 123.12698364 45.0833728 123.12698364 50.8633728 123.12698364 C50.8633728 128.40698364 50.8633728 133.68698364 50.8633728 139.12698364 C63.7333728 138.79698364 76.6033728 138.46698364 89.8633728 138.12698364 C89.99413788 129.7958299 89.99413788 129.7958299 90.07113647 121.46414185 C90.32950187 111.87797146 90.32950187 111.87797146 93.28915405 108.85745239 C97.89982319 105.75801927 101.65814417 105.95602502 107.08651733 105.92166138 C108.0426593 105.91176178 108.99880127 105.90186218 109.98391724 105.8916626 C113.15464779 105.85999244 116.32539334 105.83526837 119.4961853 105.81057739 C121.6905151 105.79001263 123.8848409 105.76901629 126.0791626 105.74760437 C131.86266849 105.69233438 137.64621041 105.64294685 143.42977905 105.59475708 C149.32824929 105.544578 155.22666701 105.4888732 161.12509155 105.43362427 C172.70447549 105.32598242 184.2839039 105.22506128 195.8633728 105.12698364 C196.1933728 95.22698364 196.5233728 85.32698364 196.8633728 75.12698364 C194.29369217 75.13364548 191.72401154 75.14030731 189.07646179 75.14717102 C164.89940432 75.20842045 140.72235705 75.25309561 116.54523945 75.28242016 C104.1145503 75.29789772 91.68391803 75.31900426 79.25326538 75.353302 C68.42037789 75.38317709 57.58753158 75.40255218 46.75460404 75.40924913 C41.01714524 75.41316457 35.27980428 75.42238498 29.54238319 75.44417381 C24.144081 75.46450903 18.74594542 75.47082341 13.34760857 75.46630669 C11.36464152 75.46713321 9.38166901 75.47311643 7.39873505 75.48460007 C4.69401834 75.49949771 1.98993295 75.49594719 -0.71479797 75.48774719 C-1.50176912 75.49648572 -2.28874026 75.50522424 -3.09955901 75.51422757 C-7.61507268 75.47715467 -10.55498587 74.94575912 -14.1366272 72.12698364 C-15.50715457 69.3859289 -15.28659971 67.17243086 -15.31362915 64.10427856 C-15.32646439 62.83923996 -15.33929962 61.57420135 -15.3525238 60.27082825 C-15.36069142 58.88304027 -15.36813511 57.49524787 -15.37490845 56.10745239 C-15.37898397 55.4094433 -15.3830595 54.71143421 -15.38725853 53.99227333 C-15.40811941 50.29718954 -15.42242053 46.60214288 -15.43179321 42.90701294 C-15.44285292 39.09364759 -15.47724673 35.28086655 -15.51696491 31.46770763 C-15.54313411 28.53284128 -15.5514853 25.59811402 -15.55507469 22.66314125 C-15.5599406 21.25773488 -15.57155491 19.85233473 -15.59011269 18.44704247 C-15.61450371 16.47746244 -15.61111935 14.50759817 -15.6065979 12.53787231 C-15.61246414 11.41805466 -15.61833038 10.298237 -15.62437439 9.14448547 C-15.022894 5.42336069 -13.77782949 3.77270512 -11.1366272 1.12698364 C-7.38798562 -0.12256355 -3.90421543 -0.01104917 0 0 Z M108.8633728 124.12698364 C107.36084365 127.13204195 107.73344521 130.21955297 107.74984741 133.51419067 C107.74970139 134.27526123 107.74955536 135.03633179 107.74940491 135.82046509 C107.75010288 138.34193753 107.75788986 140.86333656 107.76571655 143.38479614 C107.76758114 145.13071655 107.76900485 146.87663748 107.77000427 148.62255859 C107.77382621 153.22243692 107.78365375 157.82228378 107.79470825 162.42214966 C107.80492931 167.11412124 107.80950338 171.80609789 107.81454468 176.49807739 C107.8252763 185.70772665 107.84234886 194.91735253 107.8633728 204.12698364 C111.60840743 205.37532852 115.09045933 205.26646848 118.99081421 205.25637817 C120.23264214 205.25900665 120.23264214 205.25900665 121.4995575 205.26168823 C124.23803804 205.26609234 126.9764541 205.26317435 129.7149353 205.25979614 C131.61397311 205.26046947 133.51301083 205.26143973 135.41204834 205.26269531 C139.39159974 205.26417022 143.3711287 205.26202386 147.35067749 205.25735474 C152.46340528 205.25164982 157.57608066 205.25494258 162.68880653 205.2609272 C166.60915526 205.26453177 170.52949145 205.26339485 174.44984055 205.26079941 C176.33578879 205.26013025 178.22173815 205.26095817 180.10768509 205.26327896 C182.7367278 205.26580461 185.36568421 205.2619665 187.99472046 205.25637817 C188.78122482 205.2584024 189.56772919 205.26042664 190.37806702 205.26251221 C193.9145998 205.57542902 193.9145998 205.57542902 196.8633728 204.12698364 C196.9625485 201.98303845 196.9930743 199.83571632 196.9883728 197.68948364 C196.99095093 196.51514771 196.99352905 195.34081177 196.9961853 194.13088989 C197.07102826 191.20290274 197.07102826 191.20290274 195.8633728 189.12698364 C172.1033728 188.79698364 148.3433728 188.46698364 123.8633728 188.12698364 C123.8633728 183.17698364 123.8633728 178.22698364 123.8633728 173.12698364 C126.7604982 171.67842094 129.26404257 172.01561646 132.50033569 172.02932739 C133.18177139 172.03078766 133.86320709 172.03224792 134.56529236 172.03375244 C136.04619634 172.03756084 137.52709574 172.04367993 139.00798225 172.05181885 C141.34817032 172.06454969 143.68830192 172.07108939 146.02851868 172.07595825 C150.99432868 172.0874021 155.96009228 172.1066512 160.9258728 172.12698364 C166.68178915 172.15053315 172.43767908 172.17093738 178.19363213 172.18292236 C180.50538011 172.18943253 182.81704776 172.20193977 185.12876892 172.21463013 C186.53778003 172.21826073 187.9467919 172.2216127 189.35580444 172.22463989 C191.20873863 172.23249512 191.20873863 172.23249512 193.09910583 172.24050903 C195.77282994 172.44335837 195.77282994 172.44335837 196.8633728 171.12698364 C196.8633728 166.50698364 196.8633728 161.88698364 196.8633728 157.12698364 C177.0633728 156.63198364 177.0633728 156.63198364 156.8633728 156.12698364 C156.8633728 150.84698364 156.8633728 145.56698364 156.8633728 140.12698364 C170.0633728 139.79698364 183.2633728 139.46698364 196.8633728 139.12698364 C197.48388856 131.36246575 197.48388856 131.36246575 195.8633728 124.12698364 C167.1533728 124.12698364 138.4433728 124.12698364 108.8633728 124.12698364 Z M18.8633728 157.12698364 C17.24354076 158.74681569 17.73053318 160.52322808 17.72293091 162.76252747 C17.71722076 163.76492966 17.71151062 164.76733185 17.70562744 165.80010986 C17.70450958 166.90917694 17.70339172 168.01824402 17.70223999 169.16091919 C17.69727509 170.32185593 17.69231018 171.48279266 17.68719482 172.6789093 C17.67252511 176.54051292 17.6657624 180.40207543 17.6602478 184.26370239 C17.65595118 186.26280324 17.65165406 188.26190408 17.6472733 190.26100475 C17.63544934 195.83561706 17.62792081 201.41021937 17.6244781 206.98484296 C17.62000252 214.19269023 17.60248224 221.40034737 17.57347751 228.60813683 C17.55184113 234.17848463 17.54177269 239.74877903 17.54043698 245.31916839 C17.53938983 248.64608287 17.53205346 251.97277838 17.51561737 255.29965782 C17.49857483 259.01527682 17.50043337 262.73043328 17.50692749 266.44607544 C17.49771271 267.54502136 17.48849792 268.64396729 17.47900391 269.7762146 C17.50891606 275.23588581 17.54834431 279.53173955 20.8633728 284.12698364 C24.34379897 286.46316143 27.45585234 286.38067215 31.57478333 286.38768005 C32.24845933 286.3915056 32.92213534 286.39533115 33.61622578 286.39927262 C35.87243436 286.40958717 38.12838771 286.40561349 40.38461304 286.40164185 C42.00268794 286.40598918 43.62076079 286.41117239 45.23883057 286.41712952 C49.63344054 286.43052837 54.02796455 286.43109722 58.42259097 286.42856622 C62.09067194 286.42749713 65.75873547 286.43237827 69.42681271 286.43717164 C78.07991434 286.44826984 86.73297257 286.44870244 95.38607788 286.44265747 C104.31453253 286.43661609 113.24282966 286.44893214 122.17125744 286.47022754 C129.83590654 286.48783685 137.50050547 286.49384597 145.16517407 286.4905898 C149.74337837 286.48877576 154.3214703 286.4914251 158.8996563 286.50530434 C163.20477732 286.51786722 167.50965256 286.51595325 171.81476974 286.50289345 C173.39459249 286.50052477 174.97443245 286.50327279 176.55423546 286.51151657 C178.71143585 286.52196148 180.86780809 286.51390244 183.02497864 286.50120544 C184.23194114 286.50137319 185.43890364 286.50154093 186.68244076 286.50171375 C190.18690691 286.08886967 192.06203563 285.23766461 194.8633728 283.12698364 C196.83238875 279.57927643 197.11223234 276.54006739 197.10629272 272.52639771 C197.10936935 271.42886169 197.11244598 270.33132568 197.11561584 269.20053101 C197.10843033 268.02641663 197.10124481 266.85230225 197.09384155 265.64260864 C197.09338333 264.43127258 197.09292511 263.21993652 197.092453 261.97189331 C197.08943581 259.4166465 197.08156547 256.86140145 197.06918335 254.30618286 C197.05087705 250.37789462 197.04867407 246.44984142 197.04891968 242.52151489 C197.04400629 240.04104409 197.03817875 237.56057489 197.03134155 235.08010864 C197.02967232 233.30679169 197.02967232 233.30679169 197.02796936 231.49765015 C197.02158951 230.41272278 197.01520966 229.32779541 197.00863647 228.20999146 C197.00482468 227.250224 197.00101288 226.29045654 196.99708557 225.30160522 C197.10567292 223.14849131 197.10567292 223.14849131 195.8633728 222.12698364 C192.77467507 222.01223308 189.70743846 221.96211218 186.61776733 221.95339966 C185.16174103 221.94336914 185.16174103 221.94336914 183.67630005 221.93313599 C181.56079508 221.9190493 179.44527458 221.90716689 177.32974625 221.89718819 C173.98509345 221.88083566 170.64055572 221.85760049 167.29595947 221.83229065 C157.78382051 221.76135495 148.27163427 221.70134936 138.7593689 221.650177 C132.94858917 221.61843347 127.13794054 221.577168 121.32726669 221.52998161 C119.10806507 221.51393145 116.88883319 221.5016239 114.66959 221.49307442 C111.56884663 221.48095771 108.46841292 221.45682284 105.36776733 221.42996216 C103.98369186 221.42907845 103.98369186 221.42907845 102.57165527 221.42817688 C101.72756104 221.41845856 100.8834668 221.40874023 100.01379395 221.39872742 C99.28042376 221.39449548 98.54705357 221.39026354 97.79146004 221.38590336 C95.8633728 221.12698364 95.8633728 221.12698364 92.8633728 219.12698364 C91.821904 216.00257724 91.71417638 213.75784633 91.67391968 210.47805786 C91.65720215 209.32030853 91.64048462 208.1625592 91.6232605 206.96972656 C91.60968506 205.71966827 91.59610962 204.46960999 91.5821228 203.18167114 C91.55400272 201.22534083 91.52587733 199.26901058 91.49742889 197.31268501 C91.43884352 193.17765154 91.3887619 189.04250637 91.33731079 184.90737915 C91.29459719 181.49885371 91.25002756 178.0903783 91.20040894 174.6819458 C91.16357871 172.12347419 91.13118127 169.56493445 91.10348511 167.00634766 C91.08676758 165.85490265 91.07005005 164.70345764 91.05282593 163.51712036 C91.04029785 162.49802582 91.02776978 161.47893127 91.01486206 160.42895508 C91.11977182 158.16366686 91.11977182 158.16366686 89.8633728 157.12698364 C86.9790346 157.03833157 84.11875122 157.01177068 81.23446655 157.02932739 C80.37023575 157.03074234 79.50600494 157.03215729 78.61558533 157.03361511 C75.84397988 157.03923125 73.072454 157.05178645 70.3008728 157.06448364 C68.42652501 157.06949656 66.55217595 157.07405983 64.67782593 157.07815552 C60.07295259 157.08835683 55.4682522 157.10792897 50.8633728 157.12698364 C50.8633728 167.68698364 50.8633728 178.24698364 50.8633728 189.12698364 C45.2533728 189.12698364 39.6433728 189.12698364 33.8633728 189.12698364 C33.8633728 178.56698364 33.8633728 168.00698364 33.8633728 157.12698364 C28.9133728 157.12698364 23.9633728 157.12698364 18.8633728 157.12698364 Z " fill="#0DC5D4" transform="translate(20.136627197265625,191.87301635742188)"/>
<path d="M0 0 C5.94 0 11.88 0 18 0 C18 5.61 18 11.22 18 17 C12.06 17 6.12 17 0 17 C0 11.39 0 5.78 0 0 Z " fill="#0EC5D4" transform="translate(143,331)"/>
<path d="M0 0 C5.61 0 11.22 0 17 0 C17 5.61 17 11.22 17 17 C11.39 17 5.78 17 0 17 C0 11.39 0 5.78 0 0 Z " fill="#0DC6D4" transform="translate(54,282)"/>
</svg>
